<svg width="75" height="75" viewBox="0 0 75 75" fill="none" xmlns="http://www.w3.org/2000/svg">
<path d="M55.1623 41.6804H38.0832V40.47C40.5142 40.408 46.5038 39.808 50.4968 35.846C55.4623 30.8805 55.1519 22.7289 55.1312 22.3978C55.1312 22.1235 55.0223 21.8604 54.8283 21.6664C54.6343 21.4724 54.3711 21.3634 54.0968 21.3634C51.8416 21.1254 41.3314 22.0358 38.0625 29.6391V21.0841C39.8625 20.8979 43.7107 20.1841 46.1831 17.4117C49.4623 13.7807 48.8934 8.1842 48.8727 7.94628C48.847 7.69022 48.7267 7.45295 48.5354 7.28079C48.3441 7.10864 48.0956 7.01396 47.8382 7.01525C47.5382 6.88077 40.5349 7.57387 38.0935 11.5876V8.04972C38.0935 7.77536 37.9845 7.51224 37.7905 7.31824C37.5965 7.12424 37.3334 7.01525 37.059 7.01525C36.7847 7.01525 36.5216 7.12424 36.3276 7.31824C36.1336 7.51224 36.0246 7.77536 36.0246 8.04972V20.1737C33.3453 15.3427 25.4316 14.5255 24.8316 14.66C24.5742 14.6587 24.3257 14.7534 24.1344 14.9255C23.9431 15.0977 23.8229 15.335 23.7971 15.591C23.7971 15.86 23.1661 22.1496 26.7867 26.2254C29.6212 29.4012 34.0798 30.1667 36.0349 30.3633V41.6804H18.9351C18.6607 41.6804 18.3976 41.7894 18.2036 41.9834C18.0096 42.1774 17.9006 42.4405 17.9006 42.7148V48.7044C17.9006 48.9788 18.0096 49.2419 18.2036 49.4359C18.3976 49.6299 18.6607 49.7389 18.9351 49.7389H20.673L24.3144 64.9456H22.2454C21.9711 64.9456 21.7079 65.0546 21.5139 65.2486C21.3199 65.4426 21.2109 65.7057 21.2109 65.9801C21.2109 66.2545 21.3199 66.5176 21.5139 66.7116C21.7079 66.9056 21.9711 67.0146 22.2454 67.0146H51.8106C52.0849 67.0146 52.3481 66.9056 52.5421 66.7116C52.7361 66.5176 52.8451 66.2545 52.8451 65.9801C52.8451 65.7057 52.7361 65.4426 52.5421 65.2486C52.3481 65.0546 52.0849 64.9456 51.8106 64.9456H49.7417L53.383 49.7389H55.1209C55.3953 49.7389 55.6584 49.6299 55.8524 49.4359C56.0464 49.2419 56.1554 48.9788 56.1554 48.7044V42.7148C56.1556 42.4475 56.0523 42.1905 55.8672 41.9976C55.682 41.8048 55.4294 41.6911 55.1623 41.6804ZM40.2762 12.1876C42.221 10.0049 45.2624 9.3635 46.8451 9.16695C46.8451 10.7704 46.5555 13.9152 44.6624 16.0358C43.3273 17.3991 41.6106 18.326 39.7383 18.6944L42.7072 15.3738C42.8493 15.1673 42.9115 14.9163 42.8824 14.6673C42.8533 14.4184 42.7349 14.1885 42.549 14.0204C42.3632 13.8522 42.1226 13.7573 41.872 13.7531C41.6214 13.749 41.3779 13.836 41.1866 13.9979L38.197 17.36C38.3589 15.4671 39.083 13.6659 40.2762 12.1876ZM25.7936 16.8634C31.1419 17.3807 35.5487 20.3806 35.9315 26.6909L32.2798 22.553C32.0932 22.3649 31.8416 22.2555 31.5767 22.2474C31.3119 22.2393 31.054 22.3332 30.8564 22.5097C30.6587 22.6861 30.5362 22.9317 30.5143 23.1957C30.4924 23.4598 30.5726 23.7222 30.7384 23.9289L34.3901 28.0667C28.1626 26.8978 25.6695 22.1599 25.7936 16.8117V16.8634ZM42.1176 27.4874C45.49 24.1151 50.8278 23.5564 53.0313 23.4737C52.7726 31.4184 48.821 37.4494 39.6762 38.277L45.4486 32.515C45.6434 32.3202 45.7528 32.056 45.7528 31.7805C45.7528 31.505 45.6434 31.2408 45.4486 31.046C45.2538 30.8512 44.9896 30.7418 44.7141 30.7418C44.4386 30.7418 44.1744 30.8512 43.9796 31.046L38.2176 36.8184C38.497 34.2218 39.3866 30.2184 42.1176 27.4874ZM47.652 64.9456H26.4454L22.804 49.7389H51.2934L47.652 64.9456ZM54.1278 47.67H19.9903V43.7493H54.1278V47.67Z" fill="url(#paint0_linear_7_295)"/>
<defs>
<linearGradient id="paint0_linear_7_295" x1="37.028" y1="7" x2="37.028" y2="67.0146" gradientUnits="userSpaceOnUse">
<stop stop-color="#FFDB6E"/>
<stop offset="1" stop-color="#FFBC5E"/>
</linearGradient>
</defs>
</svg>
