<svg width="75" height="75" viewBox="0 0 75 75" fill="none" xmlns="http://www.w3.org/2000/svg">
<path d="M64.0233 38.2821H62.3953C62.0893 28.4167 56.3591 20.1667 47.8158 16.4872H58.4884V18.0897C58.4884 18.3448 58.5913 18.5893 58.7745 18.7697C58.9576 18.95 59.2061 19.0513 59.4651 19.0513C59.7242 19.0513 59.9726 18.95 60.1558 18.7697C60.339 18.5893 60.4419 18.3448 60.4419 18.0897V12.9615C60.4419 12.7065 60.339 12.462 60.1558 12.2816C59.9726 12.1013 59.7242 12 59.4651 12C59.2061 12 58.9576 12.1013 58.7745 12.2816C58.5913 12.462 58.4884 12.7065 58.4884 12.9615V14.5641H40.907V12.9615C40.907 12.7065 40.8041 12.462 40.6209 12.2816C40.4377 12.1013 40.1893 12 39.9302 12H34.7209C34.4619 12 34.2134 12.1013 34.0303 12.2816C33.8471 12.462 33.7442 12.7065 33.7442 12.9615V14.5641H16.1628V12.9615C16.1628 12.7065 16.0599 12.462 15.8767 12.2816C15.6935 12.1013 15.4451 12 15.186 12C14.927 12 14.6786 12.1013 14.4954 12.2816C14.3122 12.462 14.2093 12.7065 14.2093 12.9615V18.0897C14.2093 18.3448 14.3122 18.5893 14.4954 18.7697C14.6786 18.95 14.927 19.0513 15.186 19.0513C15.4451 19.0513 15.6935 18.95 15.8767 18.7697C16.0599 18.5893 16.1628 18.3448 16.1628 18.0897V16.4872H26.8028C22.3268 18.3656 18.5047 21.4888 15.8051 25.474C13.1055 29.4592 11.6457 34.1332 11.6047 38.9231H9.97674C9.7177 38.9231 9.46926 39.0244 9.28608 39.2047C9.10291 39.385 9 39.6296 9 39.8846V45.0128C9 45.2678 9.10291 45.5124 9.28608 45.6927C9.46926 45.8731 9.7177 45.9744 9.97674 45.9744H15.186C15.4451 45.9744 15.6935 45.8731 15.8767 45.6927C16.0599 45.5124 16.1628 45.2678 16.1628 45.0128V39.8846C16.1628 39.6296 16.0599 39.385 15.8767 39.2047C15.6935 39.0244 15.4451 38.9231 15.186 38.9231H13.5581C13.6233 33.4292 15.7015 28.1432 19.4103 24.0374C23.1191 19.9317 28.2092 17.2825 33.7442 16.5769V18.0897C33.7442 18.3448 33.8471 18.5893 34.0303 18.7697C34.2134 18.95 34.4619 19.0513 34.7209 19.0513H36.4009L26.2623 44.3782C26.1767 44.5991 26.1767 44.8432 26.2623 45.0641L29.8958 54.8013L29.8372 61.0321C29.8364 61.1589 29.861 61.2846 29.9097 61.402C29.9584 61.5194 30.0302 61.6261 30.121 61.7161C30.2118 61.8061 30.3197 61.8775 30.4387 61.9262C30.5576 61.9749 30.6851 62 30.814 62H43.186C43.4451 62 43.6935 61.8987 43.8767 61.7184C44.0599 61.5381 44.1628 61.2935 44.1628 61.0385V54.8333L48.5972 45.1218C48.6483 45.0032 48.6746 44.8756 48.6746 44.7468C48.6746 44.618 48.6483 44.4904 48.5972 44.3718L38.2502 19.0513H39.9302C40.1893 19.0513 40.4377 18.95 40.6209 18.7697C40.8041 18.5893 40.907 18.3448 40.907 18.0897V16.5769C51.9767 18.0705 60.0447 27.0256 60.4419 38.2821H58.814C58.5549 38.2821 58.3065 38.3834 58.1233 38.5637C57.9401 38.744 57.8372 38.9886 57.8372 39.2436V44.3718C57.8372 44.6268 57.9401 44.8714 58.1233 45.0517C58.3065 45.232 58.5549 45.3333 58.814 45.3333H64.0233C64.2823 45.3333 64.5307 45.232 64.7139 45.0517C64.8971 44.8714 65 44.6268 65 44.3718V39.2436C65 38.9886 64.8971 38.744 64.7139 38.5637C64.5307 38.3834 64.2823 38.2821 64.0233 38.2821ZM14.2093 44.0513H10.9535V40.8462H14.2093V44.0513ZM31.7907 60.0769L31.8298 55.5897H42.2093V60.0769H31.7907ZM42.5544 53.6667H31.5498L28.2158 44.7436L36.3488 24.4295V41.8077C36.3488 42.0627 36.4517 42.3073 36.6349 42.4876C36.8181 42.6679 37.0665 42.7692 37.3256 42.7692C37.5846 42.7692 37.8331 42.6679 38.0162 42.4876C38.1994 42.3073 38.3023 42.0627 38.3023 41.8077V24.3333L46.6437 44.6923L42.5544 53.6667ZM38.9535 17.1282H35.6977V13.9231H38.9535V17.1282ZM63.0465 43.4103H59.7907V40.2051H63.0465V43.4103Z" fill="url(#paint0_linear_7_297)"/>
<defs>
<linearGradient id="paint0_linear_7_297" x1="37" y1="12" x2="37" y2="62" gradientUnits="userSpaceOnUse">
<stop stop-color="#FFDB6E"/>
<stop offset="1" stop-color="#FFBC5E"/>
</linearGradient>
</defs>
</svg>
