<svg width="75" height="75" viewBox="0 0 75 75" fill="none" xmlns="http://www.w3.org/2000/svg">
<path fill-rule="evenodd" clip-rule="evenodd" d="M65.4245 40.3263H9.51774C8.08699 40.3263 6.94238 39.1459 6.94238 37.7509V14.2865C6.94238 12.8558 8.08699 11.7112 9.51774 11.7112H65.4245C66.8195 11.7112 67.9999 12.8558 67.9999 14.2865V37.7509C67.9999 39.1459 66.8195 40.3263 65.4245 40.3263ZM9.51774 13.3923C9.01698 13.3923 8.62352 13.7858 8.62352 14.2865V37.7509C8.62352 38.2517 9.01698 38.6452 9.51774 38.6452H65.4245C65.9253 38.6452 66.3187 38.2517 66.3187 37.7509V14.2865C66.3187 13.7858 65.9253 13.3923 65.4245 13.3923H9.51774Z" fill="url(#paint0_linear_7_298)"/>
<path fill-rule="evenodd" clip-rule="evenodd" d="M40.744 65.615C40.279 65.615 39.9213 65.2573 39.9213 64.7923V39.4679C39.9213 39.003 40.279 38.6453 40.744 38.6453C41.209 38.6453 41.5667 39.003 41.5667 39.4679V64.7923C41.5667 65.2573 41.209 65.615 40.744 65.615ZM34.1983 65.615C33.7333 65.615 33.3398 65.2573 33.3398 64.7923V39.4679C33.3398 39.003 33.7333 38.6453 34.1983 38.6453C34.6633 38.6453 35.021 39.003 35.021 39.4679V64.7923C35.021 65.2573 34.6633 65.615 34.1983 65.615Z" fill="url(#paint1_linear_7_298)"/>
<path fill-rule="evenodd" clip-rule="evenodd" d="M60.3095 47.4446H40.7439C40.2789 47.4446 39.9212 47.0511 39.9212 46.6219C39.9212 46.1569 40.2789 45.7634 40.7439 45.7634H60.3095C60.7745 45.7634 61.1322 46.1569 61.1322 46.6219C61.1322 47.0511 60.7745 47.4446 60.3095 47.4446ZM34.1982 47.4446H14.6326C14.1676 47.4446 13.7742 47.0511 13.7742 46.6219C13.7742 46.1569 14.1676 45.7634 14.6326 45.7634H34.1982C34.6632 45.7634 35.0209 46.1569 35.0209 46.6219C35.0209 47.0511 34.6632 47.4446 34.1982 47.4446Z" fill="url(#paint2_linear_7_298)"/>
<path fill-rule="evenodd" clip-rule="evenodd" d="M52.8698 47.4444C52.4048 47.4444 52.0471 47.051 52.0471 46.6217V39.4679C52.0471 39.003 52.4048 38.6453 52.8698 38.6453C53.3348 38.6453 53.6925 39.003 53.6925 39.4679V46.6217C53.6925 47.051 53.3348 47.4444 52.8698 47.4444Z" fill="url(#paint3_linear_7_298)"/>
<path fill-rule="evenodd" clip-rule="evenodd" d="M22.0726 47.4444C21.6076 47.4444 21.2141 47.051 21.2141 46.6217V39.4679C21.2141 39.003 21.6076 38.6453 22.0726 38.6453C22.5376 38.6453 22.8952 39.003 22.8952 39.4679V46.6217C22.8952 47.051 22.5376 47.4444 22.0726 47.4444Z" fill="url(#paint4_linear_7_298)"/>
<path fill-rule="evenodd" clip-rule="evenodd" d="M47.7545 65.6153H27.1874C26.7224 65.6153 26.3647 65.2577 26.3647 64.7927C26.3647 64.3277 26.7224 63.97 27.1874 63.97H47.7545C48.1838 63.97 48.5772 64.3277 48.5772 64.7927C48.5772 65.2577 48.1838 65.6153 47.7545 65.6153Z" fill="url(#paint5_linear_7_298)"/>
<path fill-rule="evenodd" clip-rule="evenodd" d="M19.2472 13.3924C18.7822 13.3924 18.4246 12.999 18.4246 12.5697V9.24322C18.4246 8.77822 18.7822 8.38477 19.2472 8.38477C19.7122 8.38477 20.1057 8.77822 20.1057 9.24322V12.5697C20.1057 12.999 19.7122 13.3924 19.2472 13.3924Z" fill="url(#paint6_linear_7_298)"/>
<path fill-rule="evenodd" clip-rule="evenodd" d="M21.8224 10.0659H16.7075C16.2425 10.0659 15.8848 9.70821 15.8848 9.24322C15.8848 8.77822 16.2425 8.38477 16.7075 8.38477H21.8224C22.2516 8.38477 22.6451 8.77822 22.6451 9.24322C22.6451 9.70821 22.2516 10.0659 21.8224 10.0659Z" fill="url(#paint7_linear_7_298)"/>
<path fill-rule="evenodd" clip-rule="evenodd" d="M37.4533 13.3924C36.9883 13.3924 36.6306 12.999 36.6306 12.5697V9.24322C36.6306 8.77822 36.9883 8.38477 37.4533 8.38477C37.9183 8.38477 38.3118 8.77822 38.3118 9.24322V12.5697C38.3118 12.999 37.9183 13.3924 37.4533 13.3924Z" fill="url(#paint8_linear_7_298)"/>
<path fill-rule="evenodd" clip-rule="evenodd" d="M40.0285 10.0659H34.9135C34.4485 10.0659 34.0908 9.70821 34.0908 9.24322C34.0908 8.77822 34.4485 8.38477 34.9135 8.38477H40.0285C40.4577 8.38477 40.8511 8.77822 40.8511 9.24322C40.8511 9.70821 40.4577 10.0659 40.0285 10.0659Z" fill="url(#paint9_linear_7_298)"/>
<path fill-rule="evenodd" clip-rule="evenodd" d="M55.6598 13.3924C55.1948 13.3924 54.8372 12.999 54.8372 12.5697V9.24322C54.8372 8.77822 55.1948 8.38477 55.6598 8.38477C56.1248 8.38477 56.5183 8.77822 56.5183 9.24322V12.5697C56.5183 12.999 56.1248 13.3924 55.6598 13.3924Z" fill="url(#paint10_linear_7_298)"/>
<path fill-rule="evenodd" clip-rule="evenodd" d="M58.1992 10.0659H53.12C52.6551 10.0659 52.2974 9.70821 52.2974 9.24322C52.2974 8.77822 52.6551 8.38477 53.12 8.38477H58.1992C58.6642 8.38477 59.0577 8.77822 59.0577 9.24322C59.0577 9.70821 58.6642 10.0659 58.1992 10.0659Z" fill="url(#paint11_linear_7_298)"/>
<path fill-rule="evenodd" clip-rule="evenodd" d="M12.9159 19.9384C12.451 19.9384 12.0933 19.5807 12.0933 19.1157V16.2184C12.0933 15.7534 12.451 15.3958 12.9159 15.3958H15.8132C16.2782 15.3958 16.6359 15.7534 16.6359 16.2184C16.6359 16.6834 16.2782 17.0411 15.8132 17.0411H13.7386V19.1157C13.7386 19.5807 13.3809 19.9384 12.9159 19.9384Z" fill="url(#paint12_linear_7_298)"/>
<path fill-rule="evenodd" clip-rule="evenodd" d="M62.0266 19.9384C61.5616 19.9384 61.1682 19.5807 61.1682 19.1157V17.0411H59.1293C58.6643 17.0411 58.3066 16.6834 58.3066 16.2184C58.3066 15.7534 58.6643 15.3958 59.1293 15.3958H62.0266C62.4558 15.3958 62.8493 15.7534 62.8493 16.2184V19.1157C62.8493 19.5807 62.4558 19.9384 62.0266 19.9384Z" fill="url(#paint13_linear_7_298)"/>
<path fill-rule="evenodd" clip-rule="evenodd" d="M15.8132 36.6425H12.9159C12.451 36.6425 12.0933 36.2848 12.0933 35.8198V32.9225C12.0933 32.4575 12.451 32.0999 12.9159 32.0999C13.3809 32.0999 13.7386 32.4575 13.7386 32.9225V34.9614H15.8132C16.2782 34.9614 16.6359 35.3548 16.6359 35.8198C16.6359 36.2848 16.2782 36.6425 15.8132 36.6425Z" fill="url(#paint14_linear_7_298)"/>
<path fill-rule="evenodd" clip-rule="evenodd" d="M62.0266 36.6425H59.1293C58.6643 36.6425 58.3066 36.2848 58.3066 35.8198C58.3066 35.3548 58.6643 34.9614 59.1293 34.9614H61.1682V32.9225C61.1682 32.4575 61.5616 32.0999 62.0266 32.0999C62.4558 32.0999 62.8493 32.4575 62.8493 32.9225V35.8198C62.8493 36.2848 62.4558 36.6425 62.0266 36.6425Z" fill="url(#paint15_linear_7_298)"/>
<path fill-rule="evenodd" clip-rule="evenodd" d="M41.1732 34.1744H17.9592C17.5299 34.1744 17.1365 33.7809 17.1365 33.3517V18.6865C17.1365 18.2215 17.5299 17.8638 17.9592 17.8638H41.1732C41.6382 17.8638 41.9959 18.2215 41.9959 18.6865V33.3517C41.9959 33.7809 41.6382 34.1744 41.1732 34.1744ZM18.8176 32.4932H40.3505V19.5449H18.8176V32.4932Z" fill="url(#paint16_linear_7_298)"/>
<path fill-rule="evenodd" clip-rule="evenodd" d="M27.1518 34.1744C26.8657 34.1744 26.5795 34.0314 26.4365 33.7452L23.8253 29.2026L21.1784 33.7452C20.9638 34.1387 20.4631 34.2817 20.0696 34.0671C19.6404 33.8167 19.5331 33.316 19.7477 32.9225L23.0742 27.128C23.253 26.8776 23.5034 26.6987 23.8253 26.6987C24.1115 26.6987 24.3976 26.8776 24.5407 27.128L27.8672 32.9225C28.1176 33.316 27.9745 33.8167 27.5811 34.0671C27.438 34.1387 27.2949 34.1744 27.1518 34.1744Z" fill="url(#paint17_linear_7_298)"/>
<path fill-rule="evenodd" clip-rule="evenodd" d="M35.2358 34.1743C34.9496 34.1743 34.6635 34.0312 34.5204 33.745L30.0493 26.019L26.7228 31.742C26.5082 32.1712 25.9717 32.2785 25.5782 32.0639C25.1847 31.8135 25.0417 31.3128 25.292 30.9193L29.3339 23.9086C29.477 23.6582 29.7632 23.5151 30.0493 23.5151C30.3355 23.5151 30.6216 23.6582 30.7647 23.9086L35.9512 32.9224C36.2016 33.3158 36.0585 33.8166 35.665 34.067C35.5219 34.1385 35.3789 34.1743 35.2358 34.1743Z" fill="url(#paint18_linear_7_298)"/>
<path fill-rule="evenodd" clip-rule="evenodd" d="M56.9475 19.5449H45.1795C44.7145 19.5449 44.321 19.1514 44.321 18.6865C44.321 18.2215 44.7145 17.8638 45.1795 17.8638H56.9475C57.4125 17.8638 57.8059 18.2215 57.8059 18.6865C57.8059 19.1514 57.4125 19.5449 56.9475 19.5449Z" fill="url(#paint19_linear_7_298)"/>
<path fill-rule="evenodd" clip-rule="evenodd" d="M55.3379 23.2289H45.1795C44.7145 23.2289 44.321 22.8712 44.321 22.4062C44.321 21.9412 44.7145 21.5835 45.1795 21.5835H55.3379C55.8029 21.5835 56.1963 21.9412 56.1963 22.4062C56.1963 22.8712 55.8029 23.2289 55.3379 23.2289Z" fill="url(#paint20_linear_7_298)"/>
<path fill-rule="evenodd" clip-rule="evenodd" d="M53.5852 26.949H45.1795C44.7145 26.949 44.321 26.5913 44.321 26.1263C44.321 25.6613 44.7145 25.2678 45.1795 25.2678H53.5852C54.0502 25.2678 54.4079 25.6613 54.4079 26.1263C54.4079 26.5913 54.0502 26.949 53.5852 26.949Z" fill="url(#paint21_linear_7_298)"/>
<defs>
<linearGradient id="paint0_linear_7_298" x1="37.4711" y1="11.7112" x2="37.4711" y2="40.3263" gradientUnits="userSpaceOnUse">
<stop stop-color="#FFDB6E"/>
<stop offset="1" stop-color="#FFBC5E"/>
</linearGradient>
<linearGradient id="paint1_linear_7_298" x1="37.4533" y1="38.6453" x2="37.4533" y2="65.615" gradientUnits="userSpaceOnUse">
<stop stop-color="#FFDB6E"/>
<stop offset="1" stop-color="#FFBC5E"/>
</linearGradient>
<linearGradient id="paint2_linear_7_298" x1="37.4532" y1="45.7634" x2="37.4532" y2="47.4446" gradientUnits="userSpaceOnUse">
<stop stop-color="#FFDB6E"/>
<stop offset="1" stop-color="#FFBC5E"/>
</linearGradient>
<linearGradient id="paint3_linear_7_298" x1="52.8698" y1="38.6453" x2="52.8698" y2="47.4444" gradientUnits="userSpaceOnUse">
<stop stop-color="#FFDB6E"/>
<stop offset="1" stop-color="#FFBC5E"/>
</linearGradient>
<linearGradient id="paint4_linear_7_298" x1="22.0547" y1="38.6453" x2="22.0547" y2="47.4444" gradientUnits="userSpaceOnUse">
<stop stop-color="#FFDB6E"/>
<stop offset="1" stop-color="#FFBC5E"/>
</linearGradient>
<linearGradient id="paint5_linear_7_298" x1="37.471" y1="63.97" x2="37.471" y2="65.6153" gradientUnits="userSpaceOnUse">
<stop stop-color="#FFDB6E"/>
<stop offset="1" stop-color="#FFBC5E"/>
</linearGradient>
<linearGradient id="paint6_linear_7_298" x1="19.2651" y1="8.38477" x2="19.2651" y2="13.3924" gradientUnits="userSpaceOnUse">
<stop stop-color="#FFDB6E"/>
<stop offset="1" stop-color="#FFBC5E"/>
</linearGradient>
<linearGradient id="paint7_linear_7_298" x1="19.2649" y1="8.38477" x2="19.2649" y2="10.0659" gradientUnits="userSpaceOnUse">
<stop stop-color="#FFDB6E"/>
<stop offset="1" stop-color="#FFBC5E"/>
</linearGradient>
<linearGradient id="paint8_linear_7_298" x1="37.4712" y1="8.38477" x2="37.4712" y2="13.3924" gradientUnits="userSpaceOnUse">
<stop stop-color="#FFDB6E"/>
<stop offset="1" stop-color="#FFBC5E"/>
</linearGradient>
<linearGradient id="paint9_linear_7_298" x1="37.471" y1="8.38477" x2="37.471" y2="10.0659" gradientUnits="userSpaceOnUse">
<stop stop-color="#FFDB6E"/>
<stop offset="1" stop-color="#FFBC5E"/>
</linearGradient>
<linearGradient id="paint10_linear_7_298" x1="55.6777" y1="8.38477" x2="55.6777" y2="13.3924" gradientUnits="userSpaceOnUse">
<stop stop-color="#FFDB6E"/>
<stop offset="1" stop-color="#FFBC5E"/>
</linearGradient>
<linearGradient id="paint11_linear_7_298" x1="55.6775" y1="8.38477" x2="55.6775" y2="10.0659" gradientUnits="userSpaceOnUse">
<stop stop-color="#FFDB6E"/>
<stop offset="1" stop-color="#FFBC5E"/>
</linearGradient>
<linearGradient id="paint12_linear_7_298" x1="14.3646" y1="15.3958" x2="14.3646" y2="19.9384" gradientUnits="userSpaceOnUse">
<stop stop-color="#FFDB6E"/>
<stop offset="1" stop-color="#FFBC5E"/>
</linearGradient>
<linearGradient id="paint13_linear_7_298" x1="60.578" y1="15.3958" x2="60.578" y2="19.9384" gradientUnits="userSpaceOnUse">
<stop stop-color="#FFDB6E"/>
<stop offset="1" stop-color="#FFBC5E"/>
</linearGradient>
<linearGradient id="paint14_linear_7_298" x1="14.3646" y1="32.0999" x2="14.3646" y2="36.6425" gradientUnits="userSpaceOnUse">
<stop stop-color="#FFDB6E"/>
<stop offset="1" stop-color="#FFBC5E"/>
</linearGradient>
<linearGradient id="paint15_linear_7_298" x1="60.578" y1="32.0999" x2="60.578" y2="36.6425" gradientUnits="userSpaceOnUse">
<stop stop-color="#FFDB6E"/>
<stop offset="1" stop-color="#FFBC5E"/>
</linearGradient>
<linearGradient id="paint16_linear_7_298" x1="29.5662" y1="17.8638" x2="29.5662" y2="34.1744" gradientUnits="userSpaceOnUse">
<stop stop-color="#FFDB6E"/>
<stop offset="1" stop-color="#FFBC5E"/>
</linearGradient>
<linearGradient id="paint17_linear_7_298" x1="23.8161" y1="26.6987" x2="23.8161" y2="34.1744" gradientUnits="userSpaceOnUse">
<stop stop-color="#FFDB6E"/>
<stop offset="1" stop-color="#FFBC5E"/>
</linearGradient>
<linearGradient id="paint18_linear_7_298" x1="30.6216" y1="23.5151" x2="30.6216" y2="34.1743" gradientUnits="userSpaceOnUse">
<stop stop-color="#FFDB6E"/>
<stop offset="1" stop-color="#FFBC5E"/>
</linearGradient>
<linearGradient id="paint19_linear_7_298" x1="51.0635" y1="17.8638" x2="51.0635" y2="19.5449" gradientUnits="userSpaceOnUse">
<stop stop-color="#FFDB6E"/>
<stop offset="1" stop-color="#FFBC5E"/>
</linearGradient>
<linearGradient id="paint20_linear_7_298" x1="50.2587" y1="21.5835" x2="50.2587" y2="23.2289" gradientUnits="userSpaceOnUse">
<stop stop-color="#FFDB6E"/>
<stop offset="1" stop-color="#FFBC5E"/>
</linearGradient>
<linearGradient id="paint21_linear_7_298" x1="49.3645" y1="25.2678" x2="49.3645" y2="26.949" gradientUnits="userSpaceOnUse">
<stop stop-color="#FFDB6E"/>
<stop offset="1" stop-color="#FFBC5E"/>
</linearGradient>
</defs>
</svg>
