<svg width="75" height="75" viewBox="0 0 75 75" fill="none" xmlns="http://www.w3.org/2000/svg">
<path d="M60.1998 13.9576C56.2041 9.2742 50.1697 6.58813 43.6459 6.58813H37.3006C33.8915 6.58813 30.7424 7.27388 27.9406 8.6277C20.5338 12.2036 15.9327 19.4975 15.9327 27.6656C15.9327 30.18 14.8065 32.5246 12.8425 34.0953L10.7058 35.8042L11.1826 36.5488C14.4671 41.6718 16.903 47.2558 18.4226 53.1488L18.7287 54.3349C19.2565 56.3794 20.5691 58.0383 22.3291 58.8869C24.2794 59.8297 26.574 59.7796 28.4811 58.7466L42.9023 50.608L41.9379 48.899L27.5325 57.0288C26.1943 57.7548 24.5678 57.7881 23.1816 57.1201C21.9416 56.5226 21.0115 55.3287 20.628 53.8444L20.3219 52.6583C20.2404 52.3424 20.1463 52.0305 20.0599 51.7156H22.8V49.7535H19.4841C17.9988 45.0063 15.9327 40.472 13.3055 36.2378L14.0668 35.6286C16.4998 33.6822 17.8948 30.7804 17.8948 27.6656C17.8948 20.2568 22.0711 13.6398 28.7931 10.3945C31.3271 9.17119 34.1897 8.5502 37.3006 8.5502H43.6459C43.8931 8.5502 44.1374 8.56099 44.3826 8.56884V11.4933H46.3447V8.72678C51.2332 9.34679 55.64 11.6365 58.7067 15.231C62.2266 19.3572 63.6726 24.7156 62.7789 30.3203C62.3885 32.7728 61.5418 35.0753 60.2645 37.161C55.0092 45.7362 52.2309 55.0923 52.2309 64.2168V65.45H46.3447V46.8104H44.3826V65.45H34.5723V57.6017H32.6103V67.412H54.1929V64.2168C54.1929 55.4543 56.8712 46.4533 61.9372 38.1852C63.3499 35.8778 64.2858 33.3369 64.7165 30.6283C65.7024 24.4478 64.0984 18.5273 60.1998 13.9576Z" fill="url(#paint0_linear_7_301)"/>
<path d="M26.7238 31.114H20.8376V33.0761H26.7238V31.114Z" fill="url(#paint1_linear_7_301)"/>
<path d="M51.2497 27.1899C51.2497 23.9437 48.6097 21.3037 45.3635 21.3037C42.1172 21.3037 39.4773 23.9437 39.4773 27.1899C39.4773 30.4361 42.1172 33.0761 45.3635 33.0761C48.6097 33.0761 51.2497 30.4361 51.2497 27.1899ZM45.3635 31.114C43.1993 31.114 41.4394 29.3541 41.4394 27.1899C41.4394 25.0257 43.1993 23.2658 45.3635 23.2658C47.5276 23.2658 49.2876 25.0257 49.2876 27.1899C49.2876 29.3541 47.5276 31.114 45.3635 31.114Z" fill="url(#paint2_linear_7_301)"/>
<path d="M40.7782 38.0222C40.8341 38.0447 40.89 38.0683 40.9459 38.0908L41.6542 40.924H49.0728L49.7811 38.0908C49.838 38.0683 49.8929 38.0447 49.9489 38.0222L52.4534 39.5231L57.698 34.2785L56.1961 31.774C56.2196 31.7171 56.2432 31.6621 56.2657 31.6062L59.0979 30.8989V23.4803L56.2657 22.772C56.1764 22.5523 56.0793 22.3335 55.9763 22.1167L54.2055 22.9614C54.3556 23.2753 54.4891 23.5951 54.6048 23.9247L54.7804 24.4231L57.1359 25.0127V29.3665L54.7804 29.9561L54.6048 30.4545C54.4891 30.7841 54.3556 31.1039 54.2055 31.4159L53.978 31.8907L55.2268 33.9744L52.1483 37.0539L50.0656 35.805L49.5898 36.0326C49.2778 36.1817 48.9561 36.3152 48.6264 36.4319L48.129 36.6075L47.5404 38.962H43.1866L42.598 36.6075L42.1016 36.4319C41.772 36.3152 41.4502 36.1817 41.1382 36.0326L40.6624 35.805L38.5797 37.0539L34.9597 33.4339L33.5725 34.821L38.2756 39.5241L40.7782 38.0222Z" fill="url(#paint3_linear_7_301)"/>
<path d="M31.6292 23.4802V30.8988L34.4614 31.6071C34.5507 31.8278 34.6478 32.0466 34.7518 32.2624L36.5216 31.4158C36.3724 31.1038 36.238 30.783 36.1223 30.4544L35.9467 29.956L33.5912 29.3664V25.0126L35.9467 24.423L36.1223 23.9246C36.238 23.595 36.3715 23.2752 36.5216 22.9613L36.7482 22.4864L35.4993 20.4047L38.5778 17.3252L40.6605 18.5741L41.1363 18.3465C41.4483 18.1974 41.7701 18.064 42.0997 17.9472L42.5961 17.7716L43.1847 15.4171H47.5385L48.1271 17.7716L48.6235 17.9472C48.9532 18.064 49.2749 18.1974 49.5869 18.3465L50.0627 18.5741L52.1454 17.3252L55.7654 20.9452L57.1526 19.5581L52.4496 14.855L49.945 16.356C49.8891 16.3334 49.8332 16.3099 49.7772 16.2873L49.0729 13.4551H41.6543L40.946 16.2883C40.8891 16.3109 40.8342 16.3344 40.7782 16.357L38.2737 14.856L33.0291 20.1006L34.531 22.6052C34.5075 22.6611 34.4839 22.717 34.4614 22.7729L31.6292 23.4802Z" fill="url(#paint4_linear_7_301)"/>
<path d="M46.3444 17.3792H44.3823V19.3412H46.3444V17.3792Z" fill="url(#paint5_linear_7_301)"/>
<path d="M40.5077 20.947L39.1201 19.5598L37.7329 20.9474L39.1205 22.3346L40.5077 20.947Z" fill="url(#paint6_linear_7_301)"/>
<path d="M37.5153 26.209H35.5532V28.171H37.5153V26.209Z" fill="url(#paint7_linear_7_301)"/>
<path d="M39.1202 34.8147L40.5078 33.4275L39.1206 32.0399L37.7331 33.4271L39.1202 34.8147Z" fill="url(#paint8_linear_7_301)"/>
<path d="M46.3444 35.0381H44.3823V37.0001H46.3444V35.0381Z" fill="url(#paint9_linear_7_301)"/>
<path d="M52.9906 33.436L51.603 32.0488L50.2158 33.4364L51.6034 34.8236L52.9906 33.436Z" fill="url(#paint10_linear_7_301)"/>
<path d="M55.1737 26.209H53.2117V28.171H55.1737V26.209Z" fill="url(#paint11_linear_7_301)"/>
<path d="M52.9902 20.9515L51.603 19.564L50.2155 20.9511L51.6026 22.3387L52.9902 20.9515Z" fill="url(#paint12_linear_7_301)"/>
<path d="M46.3444 42.886H44.3823V44.848H46.3444V42.886Z" fill="url(#paint13_linear_7_301)"/>
<defs>
<linearGradient id="paint0_linear_7_301" x1="37.8529" y1="6.58813" x2="37.8529" y2="67.412" gradientUnits="userSpaceOnUse">
<stop stop-color="#FFDB6E"/>
<stop offset="1" stop-color="#FFBC5E"/>
</linearGradient>
<linearGradient id="paint1_linear_7_301" x1="23.7807" y1="31.114" x2="23.7807" y2="33.0761" gradientUnits="userSpaceOnUse">
<stop stop-color="#FFDB6E"/>
<stop offset="1" stop-color="#FFBC5E"/>
</linearGradient>
<linearGradient id="paint2_linear_7_301" x1="45.3635" y1="21.3037" x2="45.3635" y2="33.0761" gradientUnits="userSpaceOnUse">
<stop stop-color="#FFDB6E"/>
<stop offset="1" stop-color="#FFBC5E"/>
</linearGradient>
<linearGradient id="paint3_linear_7_301" x1="46.3352" y1="22.1167" x2="46.3352" y2="40.924" gradientUnits="userSpaceOnUse">
<stop stop-color="#FFDB6E"/>
<stop offset="1" stop-color="#FFBC5E"/>
</linearGradient>
<linearGradient id="paint4_linear_7_301" x1="44.3909" y1="13.4551" x2="44.3909" y2="32.2624" gradientUnits="userSpaceOnUse">
<stop stop-color="#FFDB6E"/>
<stop offset="1" stop-color="#FFBC5E"/>
</linearGradient>
<linearGradient id="paint5_linear_7_301" x1="45.3634" y1="17.3792" x2="45.3634" y2="19.3412" gradientUnits="userSpaceOnUse">
<stop stop-color="#FFDB6E"/>
<stop offset="1" stop-color="#FFBC5E"/>
</linearGradient>
<linearGradient id="paint6_linear_7_301" x1="39.8139" y1="20.2534" x2="38.4267" y2="21.641" gradientUnits="userSpaceOnUse">
<stop stop-color="#FFDB6E"/>
<stop offset="1" stop-color="#FFBC5E"/>
</linearGradient>
<linearGradient id="paint7_linear_7_301" x1="36.5343" y1="26.209" x2="36.5343" y2="28.171" gradientUnits="userSpaceOnUse">
<stop stop-color="#FFDB6E"/>
<stop offset="1" stop-color="#FFBC5E"/>
</linearGradient>
<linearGradient id="paint8_linear_7_301" x1="39.814" y1="34.1211" x2="38.4268" y2="32.7335" gradientUnits="userSpaceOnUse">
<stop stop-color="#FFDB6E"/>
<stop offset="1" stop-color="#FFBC5E"/>
</linearGradient>
<linearGradient id="paint9_linear_7_301" x1="45.3634" y1="35.0381" x2="45.3634" y2="37.0001" gradientUnits="userSpaceOnUse">
<stop stop-color="#FFDB6E"/>
<stop offset="1" stop-color="#FFBC5E"/>
</linearGradient>
<linearGradient id="paint10_linear_7_301" x1="52.2968" y1="32.7424" x2="50.9096" y2="34.13" gradientUnits="userSpaceOnUse">
<stop stop-color="#FFDB6E"/>
<stop offset="1" stop-color="#FFBC5E"/>
</linearGradient>
<linearGradient id="paint11_linear_7_301" x1="54.1927" y1="26.209" x2="54.1927" y2="28.171" gradientUnits="userSpaceOnUse">
<stop stop-color="#FFDB6E"/>
<stop offset="1" stop-color="#FFBC5E"/>
</linearGradient>
<linearGradient id="paint12_linear_7_301" x1="52.2966" y1="20.2577" x2="50.909" y2="21.6449" gradientUnits="userSpaceOnUse">
<stop stop-color="#FFDB6E"/>
<stop offset="1" stop-color="#FFBC5E"/>
</linearGradient>
<linearGradient id="paint13_linear_7_301" x1="45.3634" y1="42.886" x2="45.3634" y2="44.848" gradientUnits="userSpaceOnUse">
<stop stop-color="#FFDB6E"/>
<stop offset="1" stop-color="#FFBC5E"/>
</linearGradient>
</defs>
</svg>
