<svg width="75" height="75" viewBox="0 0 75 75" fill="none" xmlns="http://www.w3.org/2000/svg">
<path d="M17.3909 43.3228H54.3546C54.8925 43.3228 55.3273 42.887 55.3273 42.3501C55.3273 36.9417 53.1046 32.045 49.5299 28.5159C49.5133 28.4965 49.5065 28.4722 49.488 28.4546C49.4608 28.4284 49.4267 28.4187 49.3976 28.3963C45.8938 24.9995 41.1274 22.8965 35.8728 22.8965C30.6181 22.8965 25.8517 24.9995 22.347 28.3973C22.3188 28.4196 22.2838 28.4294 22.2575 28.4556C22.239 28.4741 22.2322 28.4984 22.2157 28.5169C18.6409 32.0469 16.4182 36.9427 16.4182 42.351C16.4182 42.888 16.853 43.3228 17.3909 43.3228ZM45.3549 31.2824C43.033 29.2902 40.0837 28.0228 36.8455 27.8078V24.8877C40.8765 25.1104 44.5407 26.696 47.3947 29.1998L45.3549 31.2824ZM34.9 27.8078C31.6618 28.0228 28.7115 29.2902 26.3906 31.2824L24.3508 29.2007C27.2048 26.6969 30.869 25.1114 34.9 24.8886V27.8088V27.8078ZM35.8728 29.7036C42.5165 29.7036 47.9686 34.8581 48.4686 41.3764H41.6206C41.1556 38.6206 38.7588 36.5127 35.8718 36.5127C35.1636 36.5127 34.4876 36.646 33.8592 36.8775L29.3273 34.685C28.9508 34.504 28.4995 34.5828 28.2067 34.8824C27.9149 35.182 27.8478 35.6353 28.0394 36.0079L30.3486 40.4785C30.2504 40.7684 30.1755 41.069 30.123 41.3764H23.275C23.7749 34.8581 29.2271 29.7036 35.8708 29.7036H35.8728ZM31.1093 37.7082L31.8972 38.0895C31.762 38.216 31.6336 38.3473 31.5111 38.4854L31.1093 37.7082ZM35.8728 38.4582C37.6811 38.4582 39.1907 39.7033 39.6255 41.3764H32.12C32.5548 39.7033 34.0645 38.4582 35.8728 38.4582ZM50.4141 41.3764C50.1923 38.0331 48.8441 35.0011 46.7401 32.6471L48.7867 30.5577C51.4286 33.4486 53.126 37.217 53.3546 41.3764H50.4141ZM22.9579 30.5577L25.0045 32.6471C22.9005 35.0011 21.5523 38.0331 21.3305 41.3764H18.3899C18.6185 37.217 20.3159 33.4486 22.9579 30.5577Z" fill="url(#paint0_linear_7_361)"/>
<path d="M20.3091 53.0501H51.4364C53.5822 53.0501 55.3273 51.3051 55.3273 49.1592C55.3273 47.0134 53.5822 45.2683 51.4364 45.2683H20.3091C18.1633 45.2683 16.4182 47.0134 16.4182 49.1592C16.4182 51.3051 18.1633 53.0501 20.3091 53.0501ZM32.5781 47.2138L31.2815 51.1047H25.5492L26.8458 47.2138H32.5781ZM53.3819 49.1592C53.3819 50.2321 52.5093 51.1047 51.4364 51.1047H33.331L34.6277 47.2138H51.4364C52.5093 47.2138 53.3819 48.0863 53.3819 49.1592ZM20.3091 47.2138H24.7963L23.4997 51.1047H20.3091C19.2362 51.1047 18.3637 50.2321 18.3637 49.1592C18.3637 48.0863 19.2362 47.2138 20.3091 47.2138Z" fill="url(#paint1_linear_7_361)"/>
<path d="M62.1365 17.0591H61.1637V15.1136C61.1637 12.4318 58.9819 10.25 56.3001 10.25H13.5001C10.8183 10.25 8.63647 12.4318 8.63647 15.1136V54.0227C8.63647 56.7045 10.8183 58.8864 13.5001 58.8864H14.4728C14.4728 61.5682 16.6547 63.75 19.3365 63.75H62.1365C64.8183 63.75 67.0001 61.5682 67.0001 58.8864V21.9227C67.0001 19.2409 64.8183 17.0591 62.1365 17.0591ZM62.1365 19.0045C63.7454 19.0045 65.0547 20.3138 65.0547 21.9227V24.8409H61.1637V19.0045H62.1365ZM10.5819 15.1136C10.5819 13.5047 11.8912 12.1955 13.5001 12.1955H56.3001C57.909 12.1955 59.2183 13.5047 59.2183 15.1136V18.0318H10.5819V15.1136ZM13.5001 56.9409C11.8912 56.9409 10.5819 55.6316 10.5819 54.0227V19.9773H59.2183V54.0227C59.2183 55.6316 57.909 56.9409 56.3001 56.9409H13.5001ZM65.0547 58.8864C65.0547 60.4953 63.7454 61.8045 62.1365 61.8045H19.3365C17.7276 61.8045 16.4183 60.4953 16.4183 58.8864H56.3001C58.9819 58.8864 61.1637 56.7045 61.1637 54.0227V26.7864H65.0547V58.8864Z" fill="url(#paint2_linear_7_361)"/>
<path d="M48.5377 14.1411H48.5279C47.991 14.1411 47.5601 14.5769 47.5601 15.1138C47.5601 15.6508 48.0007 16.0866 48.5377 16.0866C49.0746 16.0866 49.5104 15.6508 49.5104 15.1138C49.5104 14.5769 49.0756 14.1411 48.5377 14.1411Z" fill="url(#paint3_linear_7_361)"/>
<path d="M52.4288 14.1411H52.419C51.8821 14.1411 51.4512 14.5769 51.4512 15.1138C51.4512 15.6508 51.8918 16.0866 52.4288 16.0866C52.9657 16.0866 53.4015 15.6508 53.4015 15.1138C53.4015 14.5769 52.9667 14.1411 52.4288 14.1411Z" fill="url(#paint4_linear_7_361)"/>
<path d="M56.3199 14.1411H56.3101C55.7732 14.1411 55.3423 14.5769 55.3423 15.1138C55.3423 15.6508 55.7829 16.0866 56.3199 16.0866C56.8568 16.0866 57.2926 15.6508 57.2926 15.1138C57.2926 14.5769 56.8578 14.1411 56.3199 14.1411Z" fill="url(#paint5_linear_7_361)"/>
<defs>
<linearGradient id="paint0_linear_7_361" x1="35.8728" y1="22.8965" x2="35.8728" y2="43.3238" gradientUnits="userSpaceOnUse">
<stop stop-color="#FFDB6E"/>
<stop offset="1" stop-color="#FFBC5E"/>
</linearGradient>
<linearGradient id="paint1_linear_7_361" x1="35.8728" y1="45.2683" x2="35.8728" y2="53.0501" gradientUnits="userSpaceOnUse">
<stop stop-color="#FFDB6E"/>
<stop offset="1" stop-color="#FFBC5E"/>
</linearGradient>
<linearGradient id="paint2_linear_7_361" x1="37.8183" y1="10.25" x2="37.8183" y2="63.75" gradientUnits="userSpaceOnUse">
<stop stop-color="#FFDB6E"/>
<stop offset="1" stop-color="#FFBC5E"/>
</linearGradient>
<linearGradient id="paint3_linear_7_361" x1="48.5352" y1="14.1411" x2="48.5352" y2="16.0866" gradientUnits="userSpaceOnUse">
<stop stop-color="#FFDB6E"/>
<stop offset="1" stop-color="#FFBC5E"/>
</linearGradient>
<linearGradient id="paint4_linear_7_361" x1="52.4263" y1="14.1411" x2="52.4263" y2="16.0866" gradientUnits="userSpaceOnUse">
<stop stop-color="#FFDB6E"/>
<stop offset="1" stop-color="#FFBC5E"/>
</linearGradient>
<linearGradient id="paint5_linear_7_361" x1="56.3174" y1="14.1411" x2="56.3174" y2="16.0866" gradientUnits="userSpaceOnUse">
<stop stop-color="#FFDB6E"/>
<stop offset="1" stop-color="#FFBC5E"/>
</linearGradient>
</defs>
</svg>
