<svg width="75" height="75" viewBox="0 0 75 75" fill="none" xmlns="http://www.w3.org/2000/svg">
<path fill-rule="evenodd" clip-rule="evenodd" d="M56.9956 48.6284V26.7619C56.9956 24.424 55.0873 22.5653 52.7577 22.5653H20.3586C18.0208 22.5653 16.1208 24.4736 16.1208 26.7619V48.6284C29.7429 48.6284 43.3734 48.6284 56.9956 48.6284ZM30.5029 50.3467V51.0158C30.5029 51.3958 30.7921 51.7262 31.1225 51.7262H42.1756C42.5143 51.7262 42.7951 51.3958 42.7951 51.0158V50.3467H30.5029ZM41.4156 41.7719C41.176 41.7719 40.9364 41.6727 40.796 41.4827C40.5151 41.1523 40.5564 40.6236 40.8951 40.2932L46.5125 35.5762L40.8951 30.9088C40.5564 30.6197 40.5151 30.0992 40.796 29.7192C41.0851 29.3806 41.6056 29.331 41.9856 29.6201L48.3712 34.9071C48.7347 35.2706 48.743 35.824 48.3712 36.1958L41.9856 41.5819C41.7956 41.7223 41.6056 41.7719 41.4156 41.7719ZM31.7421 41.7719C31.5521 41.7719 31.3621 41.7223 31.2216 41.5819L24.9434 36.3279C24.5138 35.9727 24.4147 35.3779 24.836 34.9566L31.2216 29.6697C31.5521 29.3806 32.0808 29.4301 32.4112 29.7606C32.7003 30.0992 32.6508 30.6197 32.3203 30.9584L26.6947 35.6258L32.3203 40.3427C32.6508 40.6236 32.7003 41.1523 32.4112 41.5323C32.2212 41.6727 31.9816 41.7719 31.7421 41.7719ZM33.4108 44.5806L38.2269 26.1919C38.3177 25.7623 38.7969 25.4732 39.2264 25.5723C39.656 25.6632 39.9369 26.1423 39.846 26.5719L34.9886 45.0101C34.6747 46.0923 33.1877 45.5884 33.4108 44.5806ZM61.5225 48.6284V23.0445C61.5225 20.2853 59.2838 17.9971 56.4751 17.9971H16.6908C13.9234 17.9971 11.6434 20.2358 11.6434 23.0445V48.6284H14.4025V26.7619C14.4025 23.5236 17.0708 20.9049 20.309 20.9049H52.7082C55.9464 20.9049 58.6147 23.5236 58.6147 26.7619V48.6284H61.5225ZM9.9251 48.6284V23.0445C9.9251 19.3271 12.9238 16.3284 16.6412 16.3284H56.4751C60.1843 16.3284 63.1912 19.3271 63.1912 23.0445V48.6284H65.1408C65.6199 48.6284 65.9999 49.0084 65.9999 49.4875V53.4858C65.909 56.1127 63.8604 58.2523 61.3821 58.2523H11.7838C9.30553 58.2523 7.25684 56.1127 7.25684 53.4858V49.4875C7.25684 49.0084 7.63684 48.6284 8.11597 48.6284H9.9251ZM8.9751 50.3467V53.4858C8.9751 55.204 10.2555 56.5836 11.8334 56.5836H61.3821C62.9517 56.5836 64.2404 55.204 64.2404 53.4858V50.3467H44.4225V51.0571C44.4225 52.3953 43.4147 53.4445 42.1343 53.4445H31.0812C29.8421 53.4445 28.7929 52.3953 28.7929 51.0571V50.3467H8.9751Z" fill="url(#paint0_linear_7_296)"/>
<defs>
<linearGradient id="paint0_linear_7_296" x1="36.6284" y1="16.3284" x2="36.6284" y2="58.2523" gradientUnits="userSpaceOnUse">
<stop stop-color="#FFDB6E"/>
<stop offset="1" stop-color="#FFBC5E"/>
</linearGradient>
</defs>
</svg>
